<svg xmlns="http://www.w3.org/2000/svg" xmlns:xlink="http://www.w3.org/1999/xlink" width="1080" zoomAndPan="magnify" viewBox="0 0 810 809.999993" height="1080" preserveAspectRatio="xMidYMid meet" version="1.0"><defs><clipPath id="44d4fa897f"><path d="M 405 0 C 181.324219 0 0 181.324219 0 405 C 0 628.675781 181.324219 810 405 810 C 628.675781 810 810 628.675781 810 405 C 810 181.324219 628.675781 0 405 0 Z M 405 0 " clip-rule="nonzero"/></clipPath><clipPath id="b2f071a324"><path d="M 242 81 L 568 81 L 568 407 L 242 407 Z M 242 81 " clip-rule="nonzero"/></clipPath><clipPath id="3c031eb28a"><path d="M 144 431 L 666 431 L 666 729 L 144 729 Z M 144 431 " clip-rule="nonzero"/></clipPath></defs><rect x="-81" width="972" fill="#ffffff" y="-80.999999" height="971.999992" fill-opacity="1"/><rect x="-81" width="972" fill="#282730" y="-80.999999" height="971.999992" fill-opacity="1"/><g clip-path="url(#44d4fa897f)"><rect x="-81" width="972" fill="#282730" y="-80.999999" height="971.999992" fill-opacity="1"/></g><g clip-path="url(#b2f071a324)"><path fill="#ff859b" d="M 404.953125 406.007812 C 407.613281 406.007812 410.269531 405.945312 412.929688 405.8125 C 415.585938 405.683594 418.238281 405.488281 420.886719 405.226562 C 423.535156 404.964844 426.171875 404.640625 428.804688 404.25 C 431.4375 403.859375 434.058594 403.402344 436.667969 402.882812 C 439.277344 402.367188 441.871094 401.78125 444.453125 401.136719 C 447.03125 400.488281 449.597656 399.78125 452.144531 399.007812 C 454.6875 398.234375 457.214844 397.402344 459.71875 396.503906 C 462.222656 395.609375 464.707031 394.652344 467.164062 393.632812 C 469.621094 392.617188 472.054688 391.539062 474.457031 390.398438 C 476.863281 389.261719 479.238281 388.066406 481.585938 386.8125 C 483.933594 385.558594 486.246094 384.246094 488.527344 382.878906 C 490.808594 381.511719 493.058594 380.089844 495.269531 378.609375 C 497.480469 377.132812 499.65625 375.601562 501.792969 374.015625 C 503.929688 372.429688 506.027344 370.792969 508.082031 369.105469 C 510.140625 367.417969 512.15625 365.683594 514.125 363.894531 C 516.097656 362.109375 518.023438 360.273438 519.90625 358.394531 C 521.785156 356.511719 523.621094 354.585938 525.40625 352.613281 C 527.195312 350.644531 528.929688 348.628906 530.617188 346.570312 C 532.304688 344.515625 533.941406 342.417969 535.527344 340.28125 C 537.113281 338.144531 538.644531 335.96875 540.121094 333.757812 C 541.601562 331.546875 543.023438 329.296875 544.390625 327.015625 C 545.757812 324.734375 547.070312 322.421875 548.324219 320.074219 C 549.578125 317.726562 550.773438 315.351562 551.910156 312.945312 C 553.050781 310.542969 554.128906 308.109375 555.144531 305.652344 C 556.164062 303.195312 557.121094 300.710938 558.015625 298.207031 C 558.914062 295.703125 559.746094 293.175781 560.519531 290.632812 C 561.292969 288.085938 562 285.523438 562.648438 282.941406 C 563.292969 280.359375 563.878906 277.765625 564.394531 275.15625 C 564.914062 272.546875 565.371094 269.925781 565.761719 267.292969 C 566.152344 264.660156 566.476562 262.023438 566.738281 259.375 C 566.996094 256.726562 567.195312 254.074219 567.324219 251.417969 C 567.453125 248.757812 567.519531 246.101562 567.519531 243.441406 C 567.519531 240.78125 567.453125 238.121094 567.324219 235.464844 C 567.195312 232.804688 566.996094 230.152344 566.738281 227.503906 C 566.476562 224.859375 566.152344 222.21875 565.761719 219.585938 C 565.371094 216.953125 564.914062 214.335938 564.398438 211.726562 C 563.878906 209.117188 563.292969 206.519531 562.648438 203.941406 C 562 201.359375 561.292969 198.796875 560.519531 196.25 C 559.746094 193.703125 558.914062 191.179688 558.015625 188.671875 C 557.121094 186.167969 556.164062 183.6875 555.144531 181.226562 C 554.128906 178.769531 553.050781 176.339844 551.914062 173.933594 C 550.773438 171.527344 549.578125 169.152344 548.324219 166.804688 C 547.070312 164.460938 545.757812 162.144531 544.390625 159.863281 C 543.023438 157.582031 541.601562 155.335938 540.125 153.121094 C 538.644531 150.910156 537.113281 148.734375 535.527344 146.597656 C 533.945312 144.460938 532.308594 142.363281 530.621094 140.308594 C 528.933594 138.25 527.195312 136.238281 525.40625 134.265625 C 523.621094 132.296875 521.789062 130.367188 519.90625 128.488281 C 518.023438 126.605469 516.097656 124.773438 514.128906 122.984375 C 512.15625 121.199219 510.140625 119.460938 508.085938 117.773438 C 506.027344 116.085938 503.933594 114.449219 501.796875 112.863281 C 499.65625 111.28125 497.484375 109.75 495.269531 108.269531 C 493.058594 106.792969 490.8125 105.367188 488.53125 104 C 486.25 102.632812 483.933594 101.324219 481.585938 100.066406 C 479.242188 98.8125 476.867188 97.617188 474.460938 96.480469 C 472.054688 95.34375 469.625 94.265625 467.164062 93.246094 C 464.707031 92.230469 462.226562 91.273438 459.722656 90.375 C 457.214844 89.480469 454.691406 88.644531 452.144531 87.871094 C 449.597656 87.101562 447.035156 86.390625 444.453125 85.742188 C 441.875 85.097656 439.277344 84.515625 436.667969 83.996094 C 434.058594 83.476562 431.4375 83.023438 428.808594 82.632812 C 426.175781 82.242188 423.535156 81.914062 420.886719 81.65625 C 418.242188 81.394531 415.589844 81.199219 412.929688 81.066406 C 410.273438 80.9375 407.613281 80.871094 404.953125 80.871094 C 402.292969 80.871094 399.632812 80.9375 396.976562 81.066406 C 394.320312 81.199219 391.667969 81.394531 389.019531 81.652344 C 386.371094 81.914062 383.730469 82.238281 381.101562 82.628906 C 378.46875 83.019531 375.847656 83.476562 373.238281 83.996094 C 370.628906 84.511719 368.035156 85.097656 365.453125 85.742188 C 362.871094 86.390625 360.308594 87.097656 357.761719 87.871094 C 355.21875 88.644531 352.691406 89.476562 350.1875 90.375 C 347.679688 91.269531 345.199219 92.226562 342.742188 93.246094 C 340.285156 94.261719 337.851562 95.339844 335.445312 96.476562 C 333.042969 97.617188 330.667969 98.8125 328.320312 100.066406 C 325.972656 101.320312 323.660156 102.628906 321.378906 104 C 319.09375 105.367188 316.847656 106.789062 314.636719 108.265625 C 312.421875 109.746094 310.25 111.277344 308.113281 112.863281 C 305.976562 114.445312 303.878906 116.082031 301.820312 117.769531 C 299.765625 119.457031 297.75 121.195312 295.777344 122.980469 C 293.808594 124.769531 291.882812 126.601562 290 128.484375 C 288.117188 130.367188 286.285156 132.292969 284.5 134.261719 C 282.710938 136.234375 280.972656 138.25 279.285156 140.304688 C 277.597656 142.363281 275.960938 144.457031 274.378906 146.59375 C 272.792969 148.730469 271.261719 150.90625 269.78125 153.117188 C 268.304688 155.332031 266.882812 157.578125 265.511719 159.859375 C 264.144531 162.140625 262.835938 164.457031 261.582031 166.800781 C 260.324219 169.148438 259.128906 171.523438 257.992188 173.929688 C 256.855469 176.335938 255.777344 178.765625 254.757812 181.222656 C 253.742188 183.683594 252.785156 186.164062 251.886719 188.667969 C 250.992188 191.171875 250.15625 193.699219 249.382812 196.246094 C 248.613281 198.792969 247.902344 201.355469 247.253906 203.933594 C 246.609375 206.515625 246.027344 209.109375 245.507812 211.71875 C 244.988281 214.328125 244.53125 216.949219 244.144531 219.582031 C 243.753906 222.214844 243.425781 224.855469 243.164062 227.5 C 242.90625 230.148438 242.710938 232.800781 242.578125 235.460938 C 242.449219 238.117188 242.382812 240.773438 242.382812 243.4375 C 242.386719 246.09375 242.453125 248.753906 242.585938 251.410156 C 242.71875 254.066406 242.917969 256.71875 243.179688 259.363281 C 243.445312 262.011719 243.773438 264.652344 244.164062 267.28125 C 244.558594 269.910156 245.015625 272.53125 245.535156 275.140625 C 246.058594 277.746094 246.640625 280.339844 247.289062 282.921875 C 247.9375 285.5 248.648438 288.0625 249.421875 290.609375 C 250.195312 293.152344 251.03125 295.675781 251.929688 298.179688 C 252.828125 300.683594 253.785156 303.164062 254.804688 305.621094 C 255.824219 308.078125 256.902344 310.507812 258.042969 312.914062 C 259.179688 315.316406 260.375 317.691406 261.632812 320.035156 C 262.886719 322.382812 264.195312 324.695312 265.566406 326.976562 C 266.933594 329.257812 268.355469 331.503906 269.835938 333.714844 C 271.3125 335.925781 272.84375 338.097656 274.429688 340.234375 C 276.015625 342.371094 277.652344 344.464844 279.339844 346.523438 C 281.027344 348.578125 282.761719 350.589844 284.550781 352.5625 C 286.335938 354.53125 288.167969 356.457031 290.050781 358.339844 C 291.929688 360.21875 293.855469 362.054688 295.828125 363.839844 C 297.796875 365.625 299.8125 367.363281 301.867188 369.050781 C 303.921875 370.738281 306.019531 372.375 308.152344 373.960938 C 310.289062 375.542969 312.464844 377.074219 314.675781 378.554688 C 316.886719 380.03125 319.132812 381.457031 321.414062 382.824219 C 323.695312 384.191406 326.007812 385.503906 328.351562 386.757812 C 330.695312 388.011719 333.070312 389.210938 335.476562 390.347656 C 337.878906 391.488281 340.308594 392.566406 342.765625 393.585938 C 345.222656 394.605469 347.703125 395.5625 350.207031 396.460938 C 352.710938 397.359375 355.234375 398.195312 357.78125 398.96875 C 360.324219 399.742188 362.886719 400.453125 365.464844 401.101562 C 368.046875 401.75 370.640625 402.332031 373.246094 402.855469 C 375.855469 403.375 378.476562 403.832031 381.105469 404.226562 C 383.738281 404.617188 386.375 404.945312 389.023438 405.210938 C 391.667969 405.472656 394.320312 405.671875 396.976562 405.804688 C 399.632812 405.9375 402.292969 406.003906 404.953125 406.007812 Z M 404.953125 108.988281 C 407.152344 108.988281 409.351562 109.042969 411.550781 109.148438 C 413.746094 109.257812 415.941406 109.417969 418.128906 109.632812 C 420.320312 109.851562 422.503906 110.121094 424.679688 110.441406 C 426.855469 110.765625 429.023438 111.140625 431.183594 111.570312 C 433.339844 112 435.488281 112.480469 437.621094 113.015625 C 439.757812 113.550781 441.878906 114.136719 443.984375 114.777344 C 446.089844 115.414062 448.175781 116.105469 450.25 116.847656 C 452.320312 117.585938 454.375 118.378906 456.40625 119.222656 C 458.441406 120.0625 460.453125 120.953125 462.441406 121.894531 C 464.429688 122.835938 466.394531 123.824219 468.335938 124.863281 C 470.277344 125.898438 472.191406 126.984375 474.078125 128.117188 C 475.964844 129.246094 477.824219 130.421875 479.652344 131.644531 C 481.484375 132.867188 483.28125 134.136719 485.050781 135.445312 C 486.816406 136.757812 488.550781 138.109375 490.253906 139.507812 C 491.953125 140.902344 493.617188 142.339844 495.25 143.816406 C 496.878906 145.292969 498.472656 146.8125 500.027344 148.367188 C 501.585938 149.921875 503.101562 151.515625 504.578125 153.148438 C 506.058594 154.777344 507.496094 156.441406 508.890625 158.144531 C 510.285156 159.84375 511.640625 161.578125 512.949219 163.347656 C 514.261719 165.113281 515.527344 166.914062 516.75 168.742188 C 517.972656 170.570312 519.152344 172.429688 520.28125 174.316406 C 521.414062 176.207031 522.496094 178.121094 523.535156 180.058594 C 524.574219 182 525.5625 183.964844 526.503906 185.957031 C 527.441406 187.945312 528.335938 189.957031 529.175781 191.988281 C 530.019531 194.023438 530.8125 196.074219 531.550781 198.144531 C 532.292969 200.21875 532.984375 202.308594 533.621094 204.414062 C 534.261719 206.519531 534.847656 208.636719 535.382812 210.773438 C 535.917969 212.90625 536.398438 215.054688 536.828125 217.210938 C 537.257812 219.371094 537.632812 221.539062 537.957031 223.714844 C 538.28125 225.890625 538.550781 228.074219 538.765625 230.265625 C 538.980469 232.453125 539.140625 234.648438 539.25 236.847656 C 539.359375 239.042969 539.414062 241.242188 539.414062 243.445312 C 539.414062 245.644531 539.359375 247.84375 539.25 250.042969 C 539.140625 252.238281 538.980469 254.433594 538.765625 256.625 C 538.550781 258.8125 538.28125 260.996094 537.957031 263.171875 C 537.632812 265.351562 537.257812 267.519531 536.828125 269.675781 C 536.398438 271.835938 535.917969 273.980469 535.382812 276.113281 C 534.847656 278.25 534.261719 280.371094 533.621094 282.476562 C 532.984375 284.582031 532.292969 286.671875 531.550781 288.742188 C 530.8125 290.8125 530.019531 292.867188 529.175781 294.898438 C 528.335938 296.933594 527.441406 298.945312 526.503906 300.933594 C 525.5625 302.921875 524.574219 304.886719 523.535156 306.828125 C 522.496094 308.769531 521.414062 310.683594 520.28125 312.570312 C 519.152344 314.457031 517.972656 316.316406 516.75 318.144531 C 515.527344 319.976562 514.261719 321.773438 512.949219 323.542969 C 511.640625 325.308594 510.285156 327.042969 508.890625 328.742188 C 507.496094 330.445312 506.058594 332.109375 504.578125 333.742188 C 503.101562 335.371094 501.585938 336.964844 500.027344 338.519531 C 498.472656 340.078125 496.878906 341.59375 495.25 343.070312 C 493.617188 344.550781 491.953125 345.984375 490.253906 347.382812 C 488.550781 348.777344 486.816406 350.132812 485.050781 351.441406 C 483.28125 352.753906 481.484375 354.019531 479.652344 355.242188 C 477.824219 356.464844 475.964844 357.640625 474.078125 358.773438 C 472.191406 359.902344 470.277344 360.988281 468.335938 362.027344 C 466.394531 363.0625 464.429688 364.050781 462.441406 364.992188 C 460.449219 365.933594 458.441406 366.824219 456.40625 367.667969 C 454.375 368.507812 452.320312 369.300781 450.25 370.042969 C 448.175781 370.785156 446.089844 371.472656 443.984375 372.113281 C 441.878906 372.75 439.757812 373.335938 437.621094 373.871094 C 435.488281 374.40625 433.339844 374.890625 431.183594 375.316406 C 429.023438 375.746094 426.855469 376.125 424.679688 376.445312 C 422.503906 376.769531 420.320312 377.039062 418.128906 377.253906 C 415.941406 377.46875 413.746094 377.632812 411.550781 377.738281 C 409.351562 377.847656 407.152344 377.902344 404.953125 377.902344 C 402.75 377.902344 400.550781 377.847656 398.355469 377.738281 C 396.15625 377.628906 393.960938 377.46875 391.773438 377.253906 C 389.582031 377.039062 387.398438 376.769531 385.222656 376.445312 C 383.046875 376.121094 380.878906 375.746094 378.71875 375.316406 C 376.5625 374.886719 374.414062 374.40625 372.28125 373.871094 C 370.144531 373.335938 368.027344 372.75 365.917969 372.109375 C 363.8125 371.472656 361.726562 370.78125 359.652344 370.039062 C 357.582031 369.296875 355.527344 368.507812 353.496094 367.664062 C 351.464844 366.820312 349.453125 365.929688 347.460938 364.988281 C 345.472656 364.046875 343.507812 363.058594 341.566406 362.023438 C 339.628906 360.984375 337.714844 359.898438 335.824219 358.769531 C 333.9375 357.636719 332.078125 356.460938 330.25 355.238281 C 328.421875 354.015625 326.621094 352.75 324.855469 351.4375 C 323.085938 350.125 321.351562 348.773438 319.652344 347.375 C 317.953125 345.980469 316.285156 344.542969 314.65625 343.066406 C 313.023438 341.589844 311.429688 340.070312 309.875 338.515625 C 308.320312 336.960938 306.804688 335.367188 305.324219 333.734375 C 303.847656 332.105469 302.410156 330.4375 301.015625 328.738281 C 299.617188 327.035156 298.265625 325.300781 296.953125 323.535156 C 295.644531 321.765625 294.378906 319.96875 293.15625 318.140625 C 291.933594 316.308594 290.753906 314.449219 289.625 312.5625 C 288.492188 310.675781 287.410156 308.761719 286.371094 306.820312 C 285.335938 304.878906 284.34375 302.914062 283.40625 300.925781 C 282.464844 298.9375 281.574219 296.925781 280.730469 294.890625 C 279.890625 292.859375 279.097656 290.804688 278.355469 288.734375 C 277.613281 286.664062 276.925781 284.574219 276.285156 282.46875 C 275.648438 280.363281 275.0625 278.242188 274.527344 276.105469 C 273.992188 273.972656 273.507812 271.824219 273.082031 269.667969 C 272.652344 267.507812 272.273438 265.34375 271.953125 263.164062 C 271.628906 260.988281 271.359375 258.804688 271.144531 256.617188 C 270.929688 254.425781 270.769531 252.230469 270.660156 250.035156 C 270.550781 247.835938 270.5 245.636719 270.5 243.4375 C 270.5 241.234375 270.558594 239.039062 270.667969 236.839844 C 270.777344 234.644531 270.941406 232.449219 271.160156 230.261719 C 271.378906 228.074219 271.648438 225.890625 271.972656 223.714844 C 272.296875 221.539062 272.675781 219.375 273.105469 217.214844 C 273.539062 215.058594 274.023438 212.914062 274.558594 210.78125 C 275.09375 208.648438 275.683594 206.527344 276.324219 204.425781 C 276.960938 202.320312 277.652344 200.230469 278.394531 198.160156 C 279.136719 196.089844 279.929688 194.039062 280.773438 192.007812 C 281.617188 189.976562 282.507812 187.964844 283.449219 185.976562 C 284.390625 183.988281 285.382812 182.027344 286.417969 180.085938 C 287.457031 178.148438 288.542969 176.234375 289.675781 174.347656 C 290.804688 172.460938 291.984375 170.605469 293.207031 168.773438 C 294.429688 166.945312 295.695312 165.148438 297.003906 163.382812 C 298.316406 161.617188 299.667969 159.882812 301.066406 158.183594 C 302.460938 156.480469 303.898438 154.816406 305.375 153.1875 C 306.851562 151.558594 308.367188 149.964844 309.925781 148.410156 C 311.480469 146.855469 313.070312 145.339844 314.703125 143.859375 C 316.332031 142.382812 317.996094 140.945312 319.695312 139.550781 C 321.398438 138.15625 323.128906 136.800781 324.898438 135.492188 C 326.664062 134.179688 328.460938 132.914062 330.289062 131.691406 C 332.117188 130.46875 333.976562 129.292969 335.863281 128.160156 C 337.75 127.027344 339.660156 125.945312 341.601562 124.90625 C 343.539062 123.867188 345.503906 122.878906 347.492188 121.9375 C 349.480469 120.996094 351.492188 120.105469 353.523438 119.261719 C 355.554688 118.417969 357.605469 117.625 359.675781 116.882812 C 361.746094 116.140625 363.835938 115.449219 365.9375 114.808594 C 368.042969 114.171875 370.164062 113.582031 372.296875 113.046875 C 374.429688 112.511719 376.574219 112.027344 378.730469 111.59375 C 380.890625 111.164062 383.054688 110.785156 385.230469 110.460938 C 387.40625 110.136719 389.589844 109.867188 391.777344 109.648438 C 393.964844 109.429688 396.160156 109.265625 398.355469 109.15625 C 400.554688 109.046875 402.75 108.988281 404.953125 108.988281 Z M 404.953125 108.988281 " fill-opacity="1" fill-rule="nonzero"/></g><g clip-path="url(#3c031eb28a)"><path fill="#ff859b" d="M 404.953125 431.917969 C 400.6875 431.921875 396.425781 432.03125 392.167969 432.242188 C 387.90625 432.457031 383.65625 432.777344 379.414062 433.199219 C 375.167969 433.621094 370.9375 434.144531 366.722656 434.773438 C 362.503906 435.40625 358.304688 436.136719 354.121094 436.972656 C 349.941406 437.808594 345.78125 438.746094 341.644531 439.785156 C 337.507812 440.824219 333.402344 441.964844 329.320312 443.203125 C 325.242188 444.445312 321.195312 445.785156 317.179688 447.222656 C 313.167969 448.664062 309.191406 450.199219 305.25 451.835938 C 301.3125 453.46875 297.414062 455.199219 293.5625 457.023438 C 289.707031 458.847656 285.902344 460.765625 282.140625 462.777344 C 278.378906 464.789062 274.671875 466.894531 271.015625 469.085938 C 267.359375 471.28125 263.757812 473.5625 260.210938 475.933594 C 256.667969 478.300781 253.183594 480.757812 249.757812 483.296875 C 246.332031 485.839844 242.972656 488.460938 239.675781 491.167969 C 236.378906 493.875 233.152344 496.660156 229.992188 499.523438 C 226.835938 502.386719 223.746094 505.328125 220.730469 508.34375 C 217.714844 511.355469 214.777344 514.445312 211.910156 517.605469 C 209.046875 520.765625 206.261719 523.992188 203.558594 527.289062 C 200.851562 530.582031 198.226562 533.945312 195.6875 537.367188 C 193.144531 540.792969 190.691406 544.277344 188.320312 547.824219 C 185.949219 551.367188 183.667969 554.96875 181.476562 558.625 C 179.28125 562.28125 177.179688 565.992188 175.167969 569.75 C 173.15625 573.511719 171.234375 577.316406 169.410156 581.171875 C 167.585938 585.027344 165.855469 588.921875 164.222656 592.859375 C 162.585938 596.800781 161.050781 600.777344 159.613281 604.789062 C 158.171875 608.804688 156.832031 612.851562 155.59375 616.933594 C 154.351562 621.011719 153.210938 625.121094 152.171875 629.253906 C 151.132812 633.390625 150.195312 637.550781 149.359375 641.730469 C 148.523438 645.914062 147.792969 650.113281 147.160156 654.332031 C 146.53125 658.546875 146.007812 662.777344 145.585938 667.023438 C 145.160156 671.265625 144.84375 675.515625 144.628906 679.777344 C 144.417969 684.035156 144.308594 688.296875 144.300781 692.5625 C 144.300781 693.753906 144.359375 694.949219 144.476562 696.136719 C 144.59375 697.324219 144.769531 698.503906 145 699.675781 C 145.234375 700.847656 145.523438 702.007812 145.871094 703.148438 C 146.214844 704.292969 146.617188 705.417969 147.074219 706.519531 C 147.53125 707.625 148.042969 708.703125 148.605469 709.757812 C 149.167969 710.808594 149.78125 711.832031 150.445312 712.828125 C 151.109375 713.820312 151.820312 714.777344 152.578125 715.703125 C 153.335938 716.625 154.136719 717.507812 154.980469 718.355469 C 155.824219 719.199219 156.710938 720 157.632812 720.757812 C 158.554688 721.515625 159.515625 722.226562 160.507812 722.890625 C 161.5 723.554688 162.523438 724.167969 163.578125 724.730469 C 164.632812 725.292969 165.710938 725.800781 166.816406 726.257812 C 167.917969 726.714844 169.042969 727.117188 170.1875 727.464844 C 171.328125 727.808594 172.488281 728.097656 173.660156 728.332031 C 174.832031 728.5625 176.011719 728.738281 177.199219 728.855469 C 178.386719 728.972656 179.582031 729.03125 180.773438 729.027344 L 629.101562 729.027344 C 631.929688 729.019531 634.71875 728.691406 637.46875 728.039062 C 640.21875 727.386719 642.859375 726.429688 645.386719 725.164062 C 647.917969 723.902344 650.269531 722.367188 652.441406 720.5625 C 654.617188 718.753906 656.554688 716.726562 658.261719 714.472656 C 660.644531 711.316406 662.460938 707.863281 663.714844 704.109375 C 664.96875 700.359375 665.589844 696.507812 665.578125 692.550781 C 665.574219 688.289062 665.464844 684.027344 665.25 679.769531 C 665.039062 675.507812 664.71875 671.257812 664.296875 667.015625 C 663.875 662.773438 663.347656 658.542969 662.71875 654.324219 C 662.089844 650.105469 661.355469 645.90625 660.523438 641.726562 C 659.6875 637.546875 658.75 633.386719 657.710938 629.25 C 656.671875 625.117188 655.53125 621.007812 654.289062 616.929688 C 653.050781 612.847656 651.710938 608.800781 650.269531 604.789062 C 648.832031 600.773438 647.292969 596.796875 645.660156 592.859375 C 644.027344 588.921875 642.296875 585.023438 640.472656 581.171875 C 638.648438 577.316406 636.730469 573.511719 634.71875 569.75 C 632.707031 565.992188 630.601562 562.28125 628.410156 558.625 C 626.214844 554.96875 623.933594 551.367188 621.5625 547.824219 C 619.195312 544.277344 616.738281 540.792969 614.199219 537.371094 C 611.65625 533.945312 609.035156 530.585938 606.328125 527.289062 C 603.621094 523.992188 600.839844 520.765625 597.972656 517.605469 C 595.109375 514.449219 592.171875 511.359375 589.15625 508.34375 C 586.140625 505.328125 583.054688 502.390625 579.894531 499.527344 C 576.734375 496.664062 573.507812 493.878906 570.210938 491.171875 C 566.917969 488.464844 563.554688 485.84375 560.132812 483.300781 C 556.707031 480.761719 553.222656 478.304688 549.679688 475.9375 C 546.132812 473.566406 542.53125 471.285156 538.875 469.089844 C 535.21875 466.898438 531.511719 464.792969 527.753906 462.78125 C 523.992188 460.769531 520.1875 458.851562 516.332031 457.027344 C 512.476562 455.203125 508.582031 453.472656 504.644531 451.839844 C 500.703125 450.203125 496.730469 448.667969 492.714844 447.226562 C 488.699219 445.789062 484.65625 444.449219 480.574219 443.207031 C 476.496094 441.96875 472.386719 440.828125 468.253906 439.789062 C 464.117188 438.75 459.957031 437.8125 455.777344 436.976562 C 451.59375 436.140625 447.394531 435.40625 443.179688 434.777344 C 438.960938 434.148438 434.730469 433.621094 430.488281 433.199219 C 426.246094 432.777344 421.996094 432.457031 417.734375 432.246094 C 413.476562 432.03125 409.214844 431.921875 404.953125 431.917969 Z M 635.816406 697.59375 C 635.023438 698.644531 634.039062 699.460938 632.859375 700.046875 C 631.683594 700.628906 630.433594 700.917969 629.121094 700.914062 L 180.792969 700.914062 C 180.066406 700.917969 179.355469 700.828125 178.652344 700.644531 C 177.953125 700.460938 177.285156 700.191406 176.65625 699.832031 C 176.023438 699.472656 175.453125 699.042969 174.933594 698.535156 C 174.417969 698.027344 173.972656 697.460938 173.605469 696.835938 C 172.8125 695.519531 172.421875 694.089844 172.429688 692.550781 C 172.445312 688.757812 172.554688 684.964844 172.757812 681.175781 C 172.960938 677.386719 173.253906 673.601562 173.640625 669.828125 C 174.027344 666.050781 174.507812 662.289062 175.078125 658.535156 C 175.648438 654.78125 176.3125 651.046875 177.066406 647.328125 C 177.820312 643.609375 178.664062 639.910156 179.601562 636.230469 C 180.535156 632.550781 181.5625 628.898438 182.675781 625.269531 C 183.789062 621.644531 184.992188 618.042969 186.28125 614.476562 C 187.570312 610.90625 188.949219 607.371094 190.414062 603.867188 C 191.875 600.367188 193.425781 596.902344 195.058594 593.476562 C 196.691406 590.050781 198.40625 586.667969 200.207031 583.324219 C 202.003906 579.984375 203.882812 576.6875 205.84375 573.4375 C 207.804688 570.1875 209.84375 566.988281 211.960938 563.835938 C 214.078125 560.6875 216.269531 557.589844 218.539062 554.546875 C 220.804688 551.503906 223.148438 548.519531 225.5625 545.589844 C 227.976562 542.664062 230.460938 539.796875 233.015625 536.988281 C 235.574219 534.183594 238.195312 531.441406 240.882812 528.761719 C 243.574219 526.085938 246.328125 523.472656 249.144531 520.929688 C 251.960938 518.386719 254.839844 515.914062 257.777344 513.511719 C 260.714844 511.109375 263.710938 508.78125 266.761719 506.527344 C 269.816406 504.269531 272.921875 502.089844 276.078125 499.988281 C 279.238281 497.882812 282.449219 495.859375 285.707031 493.914062 C 288.964844 491.964844 292.269531 490.101562 295.617188 488.316406 C 298.96875 486.53125 302.359375 484.828125 305.792969 483.210938 C 309.222656 481.59375 312.695312 480.058594 316.203125 478.609375 C 319.710938 477.160156 323.25 475.800781 326.828125 474.523438 C 330.402344 473.25 334.003906 472.0625 337.636719 470.960938 C 341.269531 469.863281 344.925781 468.855469 348.609375 467.933594 C 352.292969 467.015625 355.996094 466.1875 359.71875 465.445312 C 363.441406 464.707031 367.179688 464.0625 370.933594 463.507812 C 374.6875 462.949219 378.453125 462.488281 382.230469 462.117188 C 386.007812 461.746094 389.792969 461.46875 393.582031 461.28125 C 397.375 461.097656 401.167969 461.003906 404.960938 461.003906 C 408.757812 461.003906 412.550781 461.097656 416.339844 461.28125 C 420.132812 461.46875 423.914062 461.746094 427.691406 462.117188 C 431.46875 462.488281 435.234375 462.949219 438.988281 463.507812 C 442.746094 464.0625 446.484375 464.707031 450.207031 465.445312 C 453.929688 466.1875 457.632812 467.015625 461.3125 467.933594 C 464.996094 468.855469 468.652344 469.863281 472.285156 470.960938 C 475.917969 472.0625 479.523438 473.25 483.097656 474.523438 C 486.671875 475.800781 490.214844 477.160156 493.722656 478.609375 C 497.230469 480.058594 500.699219 481.59375 504.132812 483.210938 C 507.566406 484.828125 510.957031 486.53125 514.304688 488.316406 C 517.65625 490.101562 520.960938 491.964844 524.21875 493.914062 C 527.476562 495.859375 530.683594 497.882812 533.84375 499.988281 C 537.003906 502.089844 540.109375 504.269531 543.160156 506.527344 C 546.210938 508.78125 549.207031 511.109375 552.144531 513.511719 C 555.085938 515.914062 557.960938 518.386719 560.777344 520.929688 C 563.597656 523.472656 566.351562 526.085938 569.039062 528.761719 C 571.730469 531.441406 574.351562 534.183594 576.90625 536.988281 C 579.460938 539.796875 581.945312 542.664062 584.359375 545.589844 C 586.773438 548.519531 589.117188 551.503906 591.386719 554.546875 C 593.652344 557.589844 595.847656 560.6875 597.964844 563.835938 C 600.082031 566.988281 602.117188 570.1875 604.078125 573.4375 C 606.039062 576.6875 607.917969 579.984375 609.71875 583.324219 C 611.515625 586.667969 613.234375 590.050781 614.867188 593.476562 C 616.5 596.902344 618.046875 600.367188 619.511719 603.867188 C 620.972656 607.371094 622.351562 610.90625 623.640625 614.476562 C 624.933594 618.042969 626.132812 621.644531 627.25 625.269531 C 628.363281 628.898438 629.386719 632.550781 630.324219 636.230469 C 631.257812 639.910156 632.101562 643.609375 632.855469 647.328125 C 633.609375 651.046875 634.273438 654.78125 634.84375 658.535156 C 635.417969 662.289062 635.894531 666.050781 636.28125 669.828125 C 636.667969 673.601562 636.964844 677.386719 637.164062 681.175781 C 637.367188 684.964844 637.476562 688.757812 637.492188 692.550781 C 637.488281 694.414062 636.925781 696.085938 635.804688 697.570312 Z M 635.816406 697.59375 " fill-opacity="1" fill-rule="nonzero"/></g></svg>